# xmcd
#
# Track frame offsets: 
#        150
#        27675
#        62097
#        80685
#        102630
#        118060
#        137177
#        152662
#        170662
#        186047
#        203120
#        218665
#        238617
#        253202
#
# Disc length: 3588 seconds
#
# Revision: 1
# Processed by: cddbd v1.5.2PL0 Copyright (c) Steve Scherf et al.
# Submitted via: ExactAudioCopy v0.99pb4
#
DISCID=d30e020e
DTITLE=Real Thing - [1993 SNS APC HHO-05-2] The Very Best Of
DYEAR=1993
DGENRE=Disco
TTITLE0=You To Me Are Everything (The Decade Remix '76-'86)
TTITLE1=Boogie Down (Get Funky Now)
TTITLE2=You'll Never Know What You're Missing
TTITLE3=The Story Of My Life
TTITLE4=Let's Go Disco
TTITLE5=She's A Groovy Freak
TTITLE6=Whenever You Want My Love
TTITLE7=Rainin' Through My Sunshine
TTITLE8=Can't Get By Without You
TTITLE9=It's The Real Thing
TTITLE10=Love's Such A Wonderful Thing
TTITLE11=Children Of The Ghetto
TTITLE12=Lady I Love You All The Time
TTITLE13=You To Me Are Everything
EXTD=ID3G:  17 YEAR: 1993
EXTT0=The Very Best Of Real Thing [CD1of1]
EXTT1=The Very Best Of Real Thing [CD1of1]
EXTT2=The Very Best Of Real Thing [CD1of1]
EXTT3=The Very Best Of Real Thing [CD1of1]
EXTT4=The Very Best Of Real Thing [CD1of1]
EXTT5=The Very Best Of Real Thing [CD1of1]
EXTT6=The Very Best Of Real Thing [CD1of1]
EXTT7=The Very Best Of Real Thing [CD1of1]
EXTT8=The Very Best Of Real Thing [CD1of1]
EXTT9=The Very Best Of Real Thing [CD1of1]
EXTT10=The Very Best Of Real Thing [CD1of1]
EXTT11=The Very Best Of Real Thing [CD1of1]
EXTT12=The Very Best Of Real Thing [CD1of1]
EXTT13=The Very Best Of Real Thing [CD1of1]
PLAYORDER=
